# AST/ASF file generated using VICON BodyLanguage
# -----------------------------------------------
:version 1.10
:name VICON
:units
  mass 1.0
  length 0.45
  angle deg
:documentation
   .ast/.asf automatically generated from VICON data using
   VICON BodyBuilder and BodyLanguage model FoxedUp or BRILLIANT.MOD
:root
   order TX TY TZ RX RY RZ
   axis XYZ
   position 0 0 0  
   orientation 0 0 0 
:bonedata
  begin
     id 1 
     name lhipjoint
     direction 0.645893 -0.654526 0.392961 
     length 2.38111 
     axis 0 0 0  XYZ
  end
  begin
     id 2 
     name lfemur
     direction 0.34202 -0.939693 0  
     length 6.6822  
     axis 0 0 20  XYZ
    dof rx ry rz
    limits (-160.0 20.0)
           (-70.0 70.0)
           (-60.0 70.0)
  end
  begin
     id 3 
     name ltibia
     direction 0.34202 -0.939693 0   
     length 6.93904   
     axis 0 0 20   XYZ
    dof rx
    limits (-10.0 170.0)
  end
  begin
     id 4 
     name lfoot
     direction 0.0694967 -0.190941 0.979138   
     length 2.13616   
     axis -90 7.62852e-016 20   XYZ
    dof rx rz
    limits (-45.0 90.0)
           (-70.0 20.0)
  end
  begin
     id 5 
     name ltoes
     direction 1.535e-011 -4.2202e-011 1   
     length 1.07536   
     axis -90 7.62852e-016 20   XYZ
    dof rx
    limits (-90.0 20.0)
  end
  begin
     id 6 
     name rhipjoint
     direction -0.700219 -0.612087 0.367481   
     length 2.54621  
     axis 0 0 0  XYZ 
  end
  begin
     id 7 
     name rfemur
     direction -0.34202 -0.939693 0   
     length 6.55353   
     axis 0 0 -20   XYZ
    dof rx ry rz
    limits (-160.0 20.0)
           (-70.0 70.0)
           (-70.0 60.0)
  end
  begin
     id 8 
     name rtibia
     direction -0.34202 -0.939693 0   
     length 6.8736   
     axis 0 0 -20   XYZ
    dof rx
    limits (-10.0 170.0)
 end
 begin
     id 9 
     name rfoot
     direction -0.0679995 -0.186827 0.980037   
     length 2.1218  
     axis -90 -7.62852e-016 -20   XYZ
    dof rx rz
    limits (-45.0 90.0)
           (-20.0 70.0)
  end
  begin
     id 10 
     name rtoes
     direction -1.53589e-011 -4.21772e-011 1   
     length 1.06864   
     axis -90 -7.62852e-016 -20   XYZ
    dof rx
    limits (-90.0 20.0)
  end
  begin
     id 11 
     name lowerback
     direction -0.0416607 0.996347 -0.0745409   
     length 2.12205   
     axis 0 0 0   XYZ
    dof rx ry rz
    limits (-20.0 45.0)
           (-30.0 30.0)
           (-30.0 30.0)
  end
  begin
     id 12 
     name upperback
     direction -0.000153993 0.999276 -0.0380568   
     length 2.12759   
     axis 0 0 0   XYZ
    dof rx ry rz
    limits (-20.0 45.0)
           (-30.0 30.0)
           (-30.0 30.0)
  end
  begin
     id 13 
     name thorax
     direction 0.0187671 0.999821 -0.00241421   
     length 2.13704   
     axis 0 0 0   XYZ
    dof rx ry rz
    limits (-20.0 45.0)
           (-30.0 30.0)
           (-30.0 30.0)
  end
  begin
     id 14 
     name lowerneck
     direction 0.0268157 0.964865 0.261374   
     length 1.65253   
     axis 0 0 0   XYZ
    dof rx ry rz
    limits (-20.0 45.0)
           (-30.0 30.0)
           (-30.0 30.0)
  end
  begin
     id 15 
     name upperneck
     direction 0.00263774 0.939908 -0.341418   
     length 1.72375   
     axis 0 0 0   XYZ
    dof rx ry rz
    limits (-20.0 45.0)
           (-30.0 30.0)
           (-30.0 30.0)
  end
  begin
     id 16
     name head
     direction -0.00526001 0.989001 -0.147818  
     length 1.74878  
     axis 0 0 0   XYZ
    dof rx ry rz
    limits (-20.0 45.0)
           (-30.0 30.0)
           (-30.0 30.0)
  end
  begin
     id 17 
     name lclavicle
     direction 0.881214 0.461162 -0.103884  
     length 3.25108  
     axis 0 0 0   XYZ
    dof ry rz
    limits (-20.0 10.0)
           (0.0 20.0)
  end
  begin
     id 18 
     name lhumerus
     direction 1 -4.4899e-011 3.38092e-027   
     length 4.87408   
     axis 180 -30 -90   XYZ
    dof rx ry rz
    limits (-60.0 90.0)
           (-90.0 90.0)
           (-90.0 90.0)
  end
  begin
     id 19
     name lradius
     direction 1 -4.48931e-011 9.96288e-027   
     length 2.76729   
     axis 180 -30 -90   XYZ
    dof rx
    limits (-10.0 170.0)
  end
  begin
     id 20
     name lwrist
     direction 1 -4.4896e-011 1.50617e-026   
     length 1.38364   
     axis -9.31234e-015 90 90   XYZ
    dof ry
    limits (-180.0 0.0)
 end
  begin
     id 21 
     name lhand
     direction 1 -4.49038e-011 3.01286e-026   
     length 0.98922   
     axis -1.92217e-014 90 90   XYZ
    dof rx rz
    limits (-90.0 90.0)
           (-45.0 45.0)
  end
  begin
     id 22 
     name lfingers
     direction 1 -4.49051e-011 6.02588e-026   
     length 0.797535   
     axis -3.84436e-014 90 90   XYZ
    dof rx
    limits (0.0 90.0)
  end
  begin
     id 23
     name lthumb
     direction 0.707107 -6.34901e-011 0.707107   
     length 1.14511   
     axis -90 45 2.19363e-014   XYZ
    dof rx rz
    limits (-45.0 45.0)
           (-45.0 45.0)
  end
  begin
     id 24 
     name rclavicle
     direction -0.893894 0.441652 -0.0767889   
     length 3.29361  
     axis 0 0 0   XYZ 
    dof ry rz
    limits (-10.0 20.0)
           (-20.0 0.0)
  end
  begin
     id 25 
     name rhumerus
     direction -1 -4.48945e-011 8.0491e-028  
     length 4.71404   
     axis 180 30 90   XYZ
    dof rx ry rz
    limits (-90.0 60.0)
           (-90.0 90.0)
           (-90.0 90.0)
  end
  begin
     id 26 
     name rradius
     direction -1 -4.48986e-011 9.27795e-027   
     length 2.83468   
     axis 180 30 90   XYZ
    dof rx
    limits (-10.0 170.0)
  end
  begin
     id 27 
     name rwrist
     direction -1 -4.49029e-011 1.5064e-026   
     length 1.41734   
     axis -9.31234e-015 -90 -90   XYZ
    dof ry
    limits (-180.0 0.0)
  end
  begin
     id 28
     name rhand
     direction -1 -4.48857e-011 3.01165e-026   
     length 0.868195   
     axis -1.92217e-014 -90 -90   XYZ
    dof rx rz
    limits (-90.0 90.0)
           (-45.0 45.0)
  end
  begin
     id 29
     name rfingers
     direction -1 -4.49048e-011 6.02585e-026   
     length 0.699961   
     axis -3.84436e-014 -90 -90   XYZ
    dof rx
    limits (0.0 90.0)
  end
  begin
     id 30
     name rthumb
     direction -0.707107 -6.34854e-011 0.707107   
     length 1.00501   
     axis -90 -45 -2.19363e-014   XYZ
    dof rx rz
    limits (-45.0 45.0)
           (-45.0 45.0)
  end
:hierarchy
  begin
    root lhipjoint rhipjoint lowerback
    lhipjoint lfemur
    lfemur ltibia
    ltibia lfoot
    lfoot ltoes
    rhipjoint rfemur
    rfemur rtibia
    rtibia rfoot
    rfoot rtoes
    lowerback upperback
    upperback thorax
    thorax lowerneck lclavicle rclavicle
    lowerneck upperneck
    upperneck head
    lclavicle lhumerus
    lhumerus lradius
    lradius lwrist
    lwrist lhand lthumb
    lhand lfingers
    rclavicle rhumerus
    rhumerus rradius
    rradius rwrist
    rwrist rhand rthumb
    rhand rfingers
  end

#!OML:ASF H:\ManfredObstacles\Project 1\Capture day 2\Session 1\male.ASF
:FULLY-SPECIFIED
:DEGREES
50
root 0.886566 16.0209 20.3969 -165.724 -1.23535 171.835
lowerback 0.555675 -5.69749 -9.41556
upperback 1.17253 -7.6822 -0.0566045
thorax 2.13241 -4.00792 4.97942
lowerneck -32.4258 2.86298 7.20042
upperneck 43.0188 6.65673 -4.69214
head 26.4152 3.94172 -1.65245
rclavicle 1.33434e-014 -1.98785e-016
rhumerus -69.5161 0.0141586 -66.4121
rradius 54.7472
rwrist 9.1083
rhand -6.59546 -6.98849
rfingers 7.12502
rthumb 19.2599 -36.0548
lclavicle 1.33434e-014 -1.98785e-016
lhumerus -36.3583 -26.2826 91.2502
lradius 98.6519
lwrist -23.4301
lhand -14.8823 0.733018
lfingers 7.12502
lthumb 11.2782 30.4098
rfemur -50.4608 1.33183 13.8052
rtibia 50.8838
rfoot -3.5693 -17.3816
rtoes -24.192
lfemur 1.28557 -4.27123 -31.6062
ltibia 25.6345
lfoot 19.3957 2.44627
ltoes -17.1309
51
root 0.904121 16.0012 20.1222 -165.572 -1.20184 171.759
lowerback 0.321053 -5.82382 -9.46267
upperback 1.19223 -7.82528 -0.0635169
thorax 2.31261 -4.08813 4.96015
lowerneck -32.2231 2.93408 7.24079
upperneck 43.0378 6.839 -4.7458
head 26.3857 4.01151 -1.63459
rclavicle 6.95995e-014 8.15017e-015
rhumerus -70.2276 0.147603 -66.1499
rradius 55.0965
rwrist 8.99396
rhand -6.31724 -6.85895
rfingers 7.12502
rthumb 19.5274 -35.8983
lclavicle 6.95995e-014 8.15017e-015
lhumerus -36.3385 -26.8968 90.7237
lradius 98.6418
lwrist -23.3152
lhand -14.6958 0.607274
lfingers 7.12502
lthumb 11.4581 30.2742
rfemur -50.4899 1.06344 14.1708
rtibia 50.6587
rfoot -3.28411 -17.1655
rtoes -24.4729
lfemur 1.82137 -4.08776 -31.5599
ltibia 25.7935
lfoot 20.5938 1.78982
ltoes -16.1837
52
root 0.921721 15.9711 19.8482 -165.441 -1.16715 171.66
lowerback 0.126282 -5.94477 -9.5309
upperback 1.18497 -7.96646 -0.0788553
thorax 2.44379 -4.1647 4.94913
lowerneck -32.0534 3.01382 7.32029
upperneck 43.0611 7.03439 -4.84421
head 26.3901 4.08824 -1.64734
rclavicle -7.62836e-015 1.04362e-014
rhumerus -70.899 0.313258 -65.9481
rradius 55.4436
rwrist 8.88762
rhand -6.052 -6.68703
rfingers 7.12502
rthumb 19.7824 -35.7003
lclavicle -7.62836e-015 1.04362e-014
lhumerus -36.4139 -27.3619 90.2671
lradius 98.5591
lwrist -23.2781
lhand -14.5445 0.53072
lfingers 7.12502
lthumb 11.604 30.1894
rfemur -50.48 0.74974 14.5442
rtibia 50.7329
rfoot -2.85558 -17.0312
rtoes -24.669
lfemur 2.24013 -3.93433 -31.5388
ltibia 26.2321
lfoot 21.7421 1.20893
ltoes -15.1034
53
root 0.939169 15.9302 19.5752 -165.343 -1.13542 171.55
lowerback -0.0417387 -6.05403 -9.60481
upperback 1.18351 -8.0951 -0.10541
thorax 2.56333 -4.23506 4.93227
lowerneck -31.9382 3.11447 7.45642
upperneck 43.0712 7.23707 -4.98451
head 26.4195 4.17032 -1.69449
rclavicle -2.28354e-014 -6.95746e-016
rhumerus -71.4852 0.464079 -65.8054
rradius 55.7818
rwrist 8.76404
rhand -5.80975 -6.46303
rfingers 7.12502
rthumb 20.0152 -35.4522
lclavicle -2.28354e-014 -6.95746e-016
lhumerus -36.5332 -27.6982 89.8507
lradius 98.4158
lwrist -23.3135
lhand -14.3995 0.479128
lfingers 7.12502
lthumb 11.7439 30.1299
rfemur -50.4106 0.385332 14.9438
rtibia 51.0783
rfoot -2.2575 -16.9409
rtoes -22.7238
lfemur 2.53734 -3.80988 -31.5302
ltibia 26.9728
lfoot 22.8261 0.66969
ltoes -13.9248
54
root 0.95635 15.8795 19.3031 -165.287 -1.10109 171.442
lowerback -0.16218 -6.1554 -9.67904
upperback 1.18044 -8.21863 -0.136085
thorax 2.65326 -4.30176 4.91678
lowerneck -31.8275 3.22098 7.62001
upperneck 43.0821 7.44947 -5.1512
head 26.4631 4.25863 -1.75993
rclavicle 4.1546e-014 8.34896e-015
rhumerus -71.9896 0.623541 -65.721
rradius 56.1071
rwrist 8.62192
rhand -5.60479 -6.1998
rfingers 7.12502
rthumb 20.2122 -35.1682
lclavicle 4.1546e-014 8.34896e-015
lhumerus -36.7451 -27.8593 89.5024
lradius 98.2513
lwrist -23.3633
lhand -14.2275 0.4579
lfingers 7.12502
lthumb 11.9098 30.0991
rfemur -50.2572 -0.0212913 15.3717
rtibia 51.675
rfoot -1.71519 -16.9052
rtoes -20.6115
lfemur 2.71191 -3.69961 -31.5231
ltibia 28.0213
lfoot 23.8617 0.163829
ltoes -12.5931
